<?xml version="1.0" encoding="utf-8"?>
<!-- Generator: Adobe Illustrator 21.0.2, SVG Export Plug-In . SVG Version: 6.00 Build 0)  -->
<svg version="1.1" id="Layer_1" xmlns="http://www.w3.org/2000/svg" xmlns:xlink="http://www.w3.org/1999/xlink" x="0px" y="0px"
	 viewBox="0 0 90 90" enable-background="new 0 0 90 90" xml:space="preserve">
<polygon fill="#C67529" points="43.719,23.45 34.864,25.846 24.406,7.7 44.073,2.45 "/>
<polygon fill="#C67529" points="54.323,25.846 45.732,23.563 46.114,2.512 65.198,7.596 "/>
<polygon fill="#C67529" points="62.046,32.757 55.692,26.403 66.588,8.153 80.731,22.272 "/>
<polygon fill="#9A5C25" points="63.459,54.571 65.886,45.717 87.531,45.925 82.281,65.613 "/>
<polygon fill="#9A5C25" points="56.198,62.508 62.448,56.238 81.198,67.3 67.261,81.258 "/>
<polygon fill="#9A5C25" points="45.698,65.925 54.448,63.55 65.552,82.321 46.115,87.55 "/>
<polygon fill="#9A5C25" points="34.99,63.654 43.698,65.967 44.073,87.55 24.677,82.446 "/>
<polygon fill="#9A5C25" points="26.802,56.196 33.219,62.633 22.906,81.446 8.656,67.175 "/>
<polygon fill="#C67529" points="25.802,35.096 23.448,43.783 2.469,44.179 7.614,24.804 "/>
<polygon fill="#C67529" points="33.094,26.825 26.698,33.304 8.406,22.929 22.656,8.658 "/>
<polygon fill="#C67529" points="62.726,39.963 61.385,34.908 54.323,27.867 44.635,25.283 34.844,27.908 27.885,34.846 
	25.26,44.679 26.604,49.709 "/>
<polygon fill="#C67529" points="26.59,49.692 27.844,54.383 34.969,61.529 44.636,64.113 54.365,61.508 61.448,54.425 
	64.011,44.842 62.712,39.946 "/>
<polygon fill="#C67529" points="84.738,33.996 82.156,24.387 63.458,34.903 64.675,39.409 "/>
<polygon fill="#9A5C25" points="84.723,33.976 64.66,39.389 65.823,43.696 87.386,43.883 "/>
<polygon fill="#9A5C25" points="4.985,55.506 7.636,65.404 25.802,54.425 24.657,50.198 "/>
<polygon fill="#C67529" points="24.641,50.188 23.448,45.783 2.469,46.158 4.969,55.496 "/>
<g>
</g>
<g>
</g>
<g>
</g>
<g>
</g>
<g>
</g>
<g>
</g>
</svg>
